<?xml version="1.0"?>
<svg xmlns="http://www.w3.org/2000/svg" id="Capa_1" enable-background="new 0 0 512 512" height="512px" viewBox="0 0 512 512" width="512px" class=""><g><g><g><g><path d="m487.456 206.536c0-6.104-3.076-11.704-8.227-14.979l-25.688-16.331 27.576-54.034c4.389-8.602.962-19.171-7.639-23.562l-155.527-79.37c-4.167-2.128-8.913-2.505-13.363-1.062-3.515 1.14-6.5 3.32-8.653 6.234v-5.92c.001-9.656-7.856-17.512-17.513-17.512h-49.925c-4.142 0-7.5 3.357-7.5 7.5s3.358 7.5 7.5 7.5h49.925c1.386 0 2.514 1.128 2.514 2.514v34.609c0 .043.006.085.006.128l-34.921 68.427h-84.411c-4.142 0-7.5 3.357-7.5 7.5s3.358 7.5 7.5 7.5h76.756l-17.671 34.627h-12.313c-4.142 0-7.5 3.357-7.5 7.5s3.358 7.5 7.5 7.5h4.658l-26.515 51.956v-7.944c0-9.657-7.856-17.514-17.514-17.514h-29.632c-9.657 0-17.514 7.856-17.514 17.514v53.332l-20.567-13.076v-84.268h13.759c4.142 0 7.5-3.357 7.5-7.5s-3.358-7.5-7.5-7.5h-13.759v-152.791c0-1.386 1.127-2.514 2.514-2.514h91.025c4.142 0 7.5-3.357 7.5-7.5s-3.358-7.5-7.5-7.5h-91.025c-9.657 0-17.514 7.856-17.514 17.514v140.02c-.03.018-.061.033-.091.052l-53.436 33.973c-5.151 3.274-8.227 8.874-8.227 14.979v26.088c0 .313.025.62.063.923-.035.293-.06.588-.06.887v259.814c0 9.787 7.962 17.75 17.75 17.75h427.408c9.787 0 17.75-7.963 17.75-17.75v-119.753c0-4.143-3.358-7.5-7.5-7.5s-7.5 3.357-7.5 7.5v119.753c0 1.517-1.233 2.75-2.75 2.75h-427.409c-1.516 0-2.75-1.233-2.75-2.75v-246.161l100.22 63.714c-.467 1.217-.912 2.487-1.331 3.825-4.404 14.079-4.969 31.626-4.969 45.34s.565 31.261 4.969 45.341c7.146 22.844 21.622 27.639 32.508 27.639 16.5 0 41.047-10.833 59.246-22.142 2.753 2.206 6.239 3.534 10.033 3.534h31.557c3.795 0 7.281-1.329 10.034-3.535 18.359 11.412 42.68 22.143 59.244 22.143 10.886 0 25.362-4.795 32.508-27.639 4.404-14.08 4.969-31.627 4.969-45.341s-.565-31.261-4.969-45.34c-.419-1.338-.865-2.609-1.331-3.826l100.219-63.714v92.747c0 4.143 3.358 7.5 7.5 7.5s7.5-3.357 7.5-7.5v-106.401c0-.299-.025-.594-.06-.887.037-.303.063-.61.063-.923zm-447.912 23.777v-23.777c0-.945.476-1.813 1.274-2.32l45.479-28.914v84.734zm97.321 61.871v-62.868c0-1.386 1.127-2.514 2.514-2.514h29.632c1.386 0 2.514 1.128 2.514 2.514v37.336l-11.885 23.289c-4.294 1.594-8.594 4.34-12.411 8.831zm11.601 68.784c0-40.098 6.932-57.979 22.477-57.979 11.801 0 34.141 8.849 53.196 21.059v22.437l-23.49-2.419c-4.114-.414-7.804 2.572-8.229 6.692-.424 4.121 2.572 7.805 6.692 8.229l25.026 2.577v8.214l-9.04 1.87c-4.057.839-6.665 4.808-5.826 8.864.733 3.544 3.854 5.982 7.337 5.982.503 0 1.015-.052 1.527-.157l6.001-1.241v12.791c-19.097 12.235-41.339 21.061-53.196 21.061-15.543-.001-22.475-17.883-22.475-57.98zm91.756-54.371c-3.794 0-7.28 1.328-10.033 3.534-5.766-3.583-12.198-7.131-18.824-10.302l31.789-62.288c.412-.808 1.094-1.129 1.464-1.249.369-.121 1.11-.262 1.917.152l26.393 13.469c1.235.631 1.727 2.147 1.097 3.383l-27.202 53.302h-6.601zm32.639 92.66c0 .598-.486 1.083-1.083 1.083h-31.557c-.597 0-1.083-.485-1.083-1.083v-76.577c0-.598.486-1.083 1.083-1.083h31.557c.597 0 1.083.485 1.083 1.083zm68.196 19.69c-11.954 0-34.037-8.781-53.196-21.057v-9.082l17.185 1.929c.284.032.566.048.846.048 3.767 0 7.014-2.833 7.444-6.664.462-4.117-2.5-7.828-6.617-8.29l-18.857-2.116v-9.333l25.189-3.943c4.092-.641 6.891-4.478 6.25-8.57s-4.482-6.889-8.569-6.25l-22.87 3.58v-25.149c19.098-12.236 41.34-21.062 53.196-21.062 15.545 0 22.477 17.882 22.477 57.979s-6.933 57.98-22.478 57.98zm61.786-144.379 17.16-33.625c1.883-3.689.418-8.207-3.271-10.09-3.688-1.882-8.208-.419-10.089 3.271l-8.34 16.342-12.256-6.255c-3.689-1.882-8.208-.419-10.089 3.271-1.883 3.689-.418 8.207 3.271 10.09l12.256 6.254-13.476 26.406c-.029.057-.05.115-.077.172l-13.16 8.366c-7.283-8.566-16.325-10.784-23.715-10.784-.092 0-.188.005-.281.006l4.212-8.253c1.883-3.689.418-8.207-3.271-10.09-3.688-1.882-8.206-.419-10.089 3.271l-9.358 18.337c-13.476 4.056-28.366 11.357-40.458 18.871-2.753-2.206-6.239-3.534-10.033-3.534h-8.115l23.722-46.483c4.39-8.601.964-19.17-7.638-23.562l-26.394-13.47c-4.167-2.126-8.912-2.504-13.362-1.06-4.45 1.442-8.072 4.532-10.198 8.699l-32.251 63.196c-7.125-2.663-14.086-4.622-20.302-5.466l54.24-106.281 12.256 6.254c1.091.557 2.256.821 3.403.821 2.729 0 5.361-1.495 6.687-4.093 1.882-3.689.418-8.207-3.272-10.09l-12.255-6.254 69.454-136.093c.412-.807 1.094-1.129 1.464-1.249.369-.119 1.109-.261 1.918.153l155.527 79.37c1.235.631 1.727 2.148 1.097 3.383l-45.809 89.762c-1.883 3.689-.418 8.207 3.271 10.09 3.688 1.88 8.206.418 10.089-3.271l11.385-22.307 24.49 15.569c.798.508 1.274 1.375 1.274 2.32v23.777z" data-original="#000000" class="active-path" data-old_color="#000000" fill="#FADCAC"/><path d="m149.588 185.305h24.263c4.142 0 7.5-3.357 7.5-7.5s-3.358-7.5-7.5-7.5h-24.263c-4.142 0-7.5 3.357-7.5 7.5s3.358 7.5 7.5 7.5z" data-original="#000000" class="active-path" data-old_color="#000000" fill="#FADCAC"/><path d="m123.519 50.071v88.621c0 4.143 3.358 7.5 7.5 7.5s7.5-3.357 7.5-7.5v-88.621c0-4.143-3.358-7.5-7.5-7.5s-7.5 3.358-7.5 7.5z" data-original="#000000" class="active-path" data-old_color="#000000" fill="#FADCAC"/><path d="m154.11 50.071v36.049c0 4.143 3.358 7.5 7.5 7.5s7.5-3.357 7.5-7.5v-36.049c0-4.143-3.358-7.5-7.5-7.5s-7.5 3.358-7.5 7.5z" data-original="#000000" class="active-path" data-old_color="#000000" fill="#FADCAC"/><path d="m184.702 50.071v36.049c0 4.143 3.358 7.5 7.5 7.5s7.5-3.357 7.5-7.5v-36.049c0-4.143-3.358-7.5-7.5-7.5s-7.5 3.358-7.5 7.5z" data-original="#000000" class="active-path" data-old_color="#000000" fill="#FADCAC"/><path d="m222.794 93.62c4.142 0 7.5-3.357 7.5-7.5v-36.049c0-4.143-3.358-7.5-7.5-7.5s-7.5 3.357-7.5 7.5v36.049c0 4.143 3.358 7.5 7.5 7.5z" data-original="#000000" class="active-path" data-old_color="#000000" fill="#FADCAC"/><path d="m251.179 57.623h.036c4.125 0 7.479-3.335 7.499-7.465v-.104c.02-4.142-3.323-7.516-7.465-7.535-.012 0-.024 0-.036 0-4.125 0-7.479 3.335-7.499 7.465v.104c-.02 4.141 3.323 7.516 7.465 7.535z" data-original="#000000" class="active-path" data-old_color="#000000" fill="#FADCAC"/><path d="m251.179 79.705h.036c4.125 0 7.479-3.335 7.499-7.465v-.104c.02-4.142-3.323-7.516-7.465-7.535-.012 0-.024 0-.036 0-4.125 0-7.479 3.335-7.499 7.465v.104c-.02 4.142 3.323 7.516 7.465 7.535z" data-original="#000000" class="active-path" data-old_color="#000000" fill="#FADCAC"/><path d="m302.922 201.79-21.612-11.029c-3.688-1.882-8.207-.419-10.089 3.271-1.883 3.689-.418 8.207 3.271 10.09l21.612 11.029c1.092.557 2.256.821 3.403.821 2.729 0 5.361-1.495 6.686-4.093 1.883-3.689.418-8.206-3.271-10.089z" data-original="#000000" class="active-path" data-old_color="#000000" fill="#FADCAC"/><path d="m355.291 228.516-21.612-11.029c-3.688-1.881-8.208-.419-10.089 3.271-1.883 3.689-.418 8.207 3.271 10.09l21.612 11.029c1.092.557 2.256.821 3.403.821 2.729 0 5.361-1.495 6.686-4.093 1.882-3.689.418-8.207-3.271-10.089z" data-original="#000000" class="active-path" data-old_color="#000000" fill="#FADCAC"/><path d="m275.731 160.843c1.092.557 2.256.821 3.403.821 2.729 0 5.361-1.495 6.686-4.093l40.284-78.937c1.883-3.689.418-8.207-3.271-10.09-3.689-1.882-8.207-.419-10.089 3.271l-40.284 78.937c-1.882 3.69-.418 8.208 3.271 10.091z" data-original="#000000" class="active-path" data-old_color="#000000" fill="#FADCAC"/><path d="m326.877 127.922c1.092.557 2.256.821 3.403.821 2.729 0 5.36-1.495 6.686-4.093l16.387-32.109c1.883-3.689.418-8.207-3.271-10.09-3.689-1.882-8.207-.419-10.089 3.271l-16.387 32.109c-1.883 3.69-.418 8.208 3.271 10.091z" data-original="#000000" class="active-path" data-old_color="#000000" fill="#FADCAC"/><path d="m354.125 141.828c1.092.557 2.256.821 3.403.821 2.729 0 5.36-1.495 6.686-4.093l16.387-32.109c1.883-3.689.418-8.207-3.271-10.09-3.69-1.881-8.207-.419-10.089 3.271l-16.387 32.109c-1.882 3.691-.418 8.208 3.271 10.091z" data-original="#000000" class="active-path" data-old_color="#000000" fill="#FADCAC"/><path d="m404.579 110.263c-3.689-1.882-8.207-.419-10.089 3.271l-16.387 32.11c-1.883 3.689-.418 8.207 3.271 10.09 1.092.557 2.256.821 3.403.821 2.729 0 5.36-1.495 6.686-4.093l16.387-32.11c1.883-3.689.419-8.206-3.271-10.089z" data-original="#000000" class="active-path" data-old_color="#000000" fill="#FADCAC"/><path d="m389.483 190.249-74.905-38.227c-3.689-1.882-8.207-.419-10.089 3.271-1.883 3.689-.418 8.207 3.271 10.09l74.905 38.227c1.092.557 2.256.821 3.403.821 2.729 0 5.361-1.495 6.686-4.093 1.883-3.689.418-8.206-3.271-10.089z" data-original="#000000" class="active-path" data-old_color="#000000" fill="#FADCAC"/><path d="m423.05 136.589c1.092.558 2.256.822 3.404.822 2.729 0 5.36-1.495 6.686-4.092l.047-.093c1.884-3.689.42-8.207-3.27-10.09-3.689-1.885-8.207-.42-10.09 3.27l-.047.093c-1.883 3.689-.419 8.207 3.27 10.09z" data-original="#000000" class="active-path" data-old_color="#000000" fill="#FADCAC"/><path d="m423.088 153.016.047-.092c1.899-3.681.455-8.204-3.226-10.104-3.682-1.899-8.206-.454-10.104 3.227l-.047.092c-1.899 3.681-.455 8.204 3.226 10.104 1.1.567 2.275.837 3.433.837 2.717-.001 5.339-1.483 6.671-4.064z" data-original="#000000" class="active-path" data-old_color="#000000" fill="#FADCAC"/></g></g></g></g> </svg>
